<svg xmlns="http://www.w3.org/2000/svg" id="Layer_1" viewBox="0 0 1440 810">
  
  <path d="M628.42,503.62l.13,31.9c0,1.95,1.24,4.68-.25,6.36-3.55,4-7.76,7.51-9.12,13.18,4.79,1.66,9.64,1.81,14.61,1.45,3.22,2.37,6.65,3.79,10.78,4.22,17.91,2.13,35.49,2.4,53.68,1.83,11.99-.38,23.47-2.09,35.08-4.83,13.51-3.19,25.68-8.71,38.42-13.94,11.11-4.56,21.16-9.63,31.39-15.88,33.28-20.35,56.58-41.69,69.22-79.73,6.25-18.8,9.17-37.49,5.86-57.78,6.12-1.68,13.93-3.67,16.25-9.77,1.43-6.46-3.73-13.75-5.46-19.89l-5.47-12.97c13.17,17.03,18.63,37.22,19.96,58.42,1.49,23.74-3.22,46.77-15.21,67.57.6,10.31-8.1,16.74-11.19,21.58l-8.21,12.85-9,9.61-11.54,10.35-8.76,6.89-7.72,4.29-17.79,9.35-13.59,6.6c-5.4,2.62-10.95,3.6-16.83,4.9l-19.49,4.31c-2.2.49-5.93,1.39-8.08.99-7.11-1.29-13.36-.55-20.39-.37l-25.12.67-59.52.45c-4.99.04-7.1,10.61-24.8,10.73l-7.39.78c-2.65.28-4.41-.02-6.99-.03l-14.89-.03c-8.73-.02-17.57-.13-25.94-2.9l-11.85-7.49c-2.1-1.33-5.54-.83-8.14-.85l-26.34-.22c.4,1.77,1.4,2.33,1.9,2.54.74.31.86,2.53-.49,2.57-3.49.09-6.37-4.52-5.79-7.98l24.7-.39,16.13-1.8c7.1-.79,15.34-1.98,20.93-6.8,3.21-3.98.73-10.69-.14-15.02-1.02-5.05.37-9.49.45-14.34l.65-41.6.73-45.89c.11-6.79.06-13.21-.06-20l-.59-32.77c-.05-2.65-.12-4.98-1.78-7.02l-.73,25.13.17,115.26-.56,9.55-.74-.79.02-46.92-.26-58.82c-.03-6.99.62-14.37-1.08-21.03-1.26-4.12-5.85-6.99-4.95-12.56.6-3.74,3.79-6.33,5.13-11.23-33.39,25.67-63.5,56.35-70.44,99.25-.24-15.15,5.31-28.81,11.76-42.11,3.74-7.71,8.65-14.01,13.55-21.01,8.62-12.32,18.39-22.7,30.35-31.91,11.9-9.16,22.91-18.5,35.55-26.67,3.72-2.4,8.23-5.36,9.86-9.51-1.77-2.55-4.77-5.42-4.5-9.14l17.32-11.99,30.64-21.07c13.68-9.41,27.52-17.53,42.35-25.05l34.89-17.68,47.53-25.91c13.09-7.14,33.41-23.01,41.94-35.37-1.2-.71-1.77-1.7-1.17-2.55,10.14-14.55,15.04-31.33,14.39-48.95,4.87-3.53,9.26-6.64,12.54-11.27.9-1.28,1.21-2.49,3.27-3.11.63-1.03-.74-3.21-.46-5.41,4.38,5.98,5.56,24.25,4.07,31.91l-2.53,13.01-1.77,7.33c-1.61,6.65-4.33,11.86-8.01,17.59l-5.21,8.1-4.31,7.73c-4.26,7.64-8.32,14.73-15.74,19.69l-10.79,8.61-4.32,4.13c-5.17,4.94-16.18,10.03-23.86,12.7-5.39,1.87-10.44,3.21-15.57,6.1-3.69,2.08-7.59,3.37-10.19,7.28-2.22,3.35-7.37,2.42-5.58,4.5,7.23-.07,13.64,1.84,20.36,3.39l24.39,5.61c17.63,5.26,34.51,11.87,50.3,22.09.58.88-1,1.48-1.34.28l-11.41-4.33c-6.03-2.28-11.66-4.62-17.52-7.23l-10.42-4.64-32.98-10.43c-12.15-2.89-24.31-2.99-36.35-2.64,3.68,2.18,7.51,1.39,11.32,1.96l21.05,3.14c11.66,1.99,22.62,5.01,34.14,9.8-4.98,4.25-9.7,7.99-13.74,13.43-10.41-9.8-20.32-19.41-35.62-22.53,3.54,3.2,7.69,4.11,11.71,6.55,20.47,12.37,35.87,30.51,45.82,52.39,2.1.72.18-3.11,2.22-2.36,12.23,24.74,17.8,56.32,16.07,83.69l-2.75,17.38c-3.15,19.9-9.66,38.68-19.36,56.31-1.84,3.35-2.98,7.17-6.89,8.92,13.73-23.66,24.25-52.71,24.24-79.42,0-2.76.76-5.1.27-8.13l-1.88-11.64c-.62-3.84-1.17-7.35-2.68-11.04l-5.24-12.81-5.09-13.06-3.29-7.14-3.12-8.06c-3.39-8.76-9.6-16.13-16.88-21.95-1.78-1.42-2.09-2.57-3.5-4.22l-9.94-11.66-4.96-4.95c-5.22-5.22-9.28-6.55-16.27-9.04-5.94-2.12-11.96-3.82-18.25-3.54-12.79.58-25.09,2.14-37.8,4.06l-5.22-.82-27.87,17.96c-2.81,1.81-6.64,3.39-7.67,6.59l-2.54,7.89c-3.15,4.44-4.31,9-5.58,14.17l-1.8,7.34-1.86,7.84-.43,40.68-.67,28.67-.28,75.88.63,24.38c-.99-.72-.88-1.44-.86-2.01.03-.54-1.23-.81-1.21.2.02.84-.16,1.96-.49,2.3s-1.89-.25-1.89-1.02l-.43-39.82v-32.43c.02-7.62-.2-14.44-.24-22.07l-.34-80.88c-.03-7.34,1.51-13.61,3.99-20.36-2.83,2.15-5.51,4.95-6.38,8.39l-2.74,10.97-1.64,15.94.26,9.71.47,8.24c.13,2.2.07,3.86.08,6.17l.05,7.37c.09,14.13,4.31,16.14,4.33,21.03l.23,50.22v27.36ZM792.56,238.67l10.91-10.59c-2.07.21-3.61,1.45-5.05,2.64-9.24,7.64-18.9,13.97-29.08,20.37-6.44,4.05-13.11,6.91-18.83,12.04,11.33-3.16,34.61-17.23,42.05-24.46ZM642.41,324.51l-15.79,11.16c-6.38,4.51-13.2,7.86-18.42,14.26l21.38-14.46c28.41-19.22,56.68-37.63,87.06-53.93-5.54.07-9.74,3.05-14.14,5.49l-17.41,9.68-15.65,7.5-7.7,7.3-19.33,13.01ZM832.21,531.39c10.86-8,22.02-14.66,29.88-25.32-9.62,7.23-17.4,14.98-27.39,21.12-1.34.83-3.82,2.08-2.49,4.2Z"/>
  <path d="M1116.69,254.66c.01-2.43-.18-4.45-1.05-6.82l-20.16,47.44-41.88,99.08-27.58,67.29c-3.89-4.3-5.96-9.12-8.09-13.93-1.45-3.26-3.58-4.66-5.94-7.09-7.44-7.65-6.31-21.88-14.92-37.47-3.32-6-5.33-12.28-7.72-18.73l-3.81-10.26-10.71-24.37-4.52-10.61-9.9-25.97-7.59-18.03-8.24-17.9c-2.48-5.4-2.65-11.44-6.57-16.94-1.64,4.36-1.27,8.95-1.38,13.37l-.51,21.05.02,55.49-.14,66.72.44,43.18c.05,5.27,1.01,9.86,2.58,14.73-5.22-4.37-4.29-10.33-5.19-16.73-1.9,7.23-.57,15.91-9.16,19.73,3.28-4.29,5.68-8.55,5.97-13.79l1.31-23.43.65-52.52.72-23.2,1.03-14.72.37-75.67.07-28.47c0-.49.22-.95.43-1.05.28-.12,1.03-.06,1.76-.09.18-1.91-1.27-3.95-3.09-5.04l-1.64,13.04c-1.53-2.65-.82-5.66-1.77-8.32-1.68-4.72-4.49-8.9-5.15-14.06-7.71-4.08-17.77-1.43-19.41-5.74l14.29,1.15,14.37,3.47c10.75,2.6,18.83,10.02,23.23,20.69,2.71.31,5.83-1.07,8.78.14,2.18.89,4.38,4.47,5.51,6.85l12.03,25.32,3.29,8.85,7.18,16.21,13.79,34.95,21.85,51.51c1.31,3.09,2.14,6.15,4.61,8.76-.55-3.85-1.85-7.54-3.54-11.25l-11.58-25.32-8.6-19.84c-.48-1.1,0-2.94,1.52-3.03l10.2,23.73,12.6,29.37,5.61,15.22c.14.37-.38,1.23-.49,1.47-.24.52.13,1.17.9,1.02.54-.1,1.46-.31,1.79-1.05l13.26-30.07,13.86-33.4,15.27-36.51,12.4-29.61,19.11-45.17c.56-.72,1.11-.22.89.13,1.18,6.27-.31,11.93-.31,18.06l-.02,50.22-.05,15.85.1,62.85.12,27.85c.01,2.44.57,4.37-.2,6.85-.72,2.28.23,4.86.2,7.07l-.19,17.62c-.07,6.38,2.05,16.25-1.39,24.78-.93-1.69.51-3.22.5-4.58l-.24-32.8c-.02-2.08-.5-3.49-.1-5.66,1.1-6.1-.18-12.33-.19-18.52l-.07-31.6.31-75.9.23-45.85Z"/>
  <path d="M372.65,352.31c1.1,2.26-3.64,4.89-3.67,10.07l-.47,75.06-.21,32.11-2.17-1.38c-1.84,2.35-3.59,6.24-2.83,9.42,2.42,2.01,6.8,4.39,10.21,4.46l22.96.52,28.78-.16c15.66-.09,30.88-2.46,44.95-9.13,4.5-2.14,7.86-5.3,9.8-9.77l6.14-14.14c3.51-8.08,6.18-15.94,8.33-24.29,1.26,1.68.99,3.75.59,5.49-3.25,14.5-5.31,28.74-7.57,43.41l-1.12,10.51c-.37,3.45-5.78,4.85-8.84,4.95l-15.42.53c-2.71.09-6.29.08-8.7-1.41-2.26-1.4-4.22-3.32-7.41-3.32l-69.91.1c-4.87,0-1.14,4.99-11.47,5.14l-14.28.21-11.59-.51c-3.43-.15-5.56-2.74-7.37-4.72l-22.93-.32c-.35-.21-.49-1.75-.09-2.21l19.12-1.02c6.55-.35,12.56-3.91,18.1-7.21,4.08-2.42,5.96-6.26,5.97-11.07l.28-125.33.24-94.37c0-3.01.77-5.42,2.92-7.51,4.15-4.01,9.05-8.13,14.92-9.57l11.57-.58c9.61-.48,19.04-.1,28.76.04l33.75.49,17.81,2.14c6.49.78,12.15,2.72,17.87,7-.08-4.5.95-8.14,4.8-10.57-.3,5.23.22,9.24.55,13.86l1.32,18.35c.45,6.22.98,12.1,2.53,18.23-.43.38-1.73.32-1.99.03-2.55-9.69-.61-21.01-9.91-27.62,1.09,3.65,3.41,6.03,3.52,9.92-4.88-6.82-10.97-13.23-18.29-17.7l.56-3.46c-9.59-5.73-20.28-8.47-31.51-8.41-7.88-.81-15.36-.39-23.28-.31l-38.99.38-.14,115.53c-1.9-.46-2.85.35-2.91,1.16-.05.66.54,1.73,1.64,1.71l26.94-.49,35.2-.03c3.16,0,5.86,1.08,8.53,3.22l1.09-4.12c4.05-8.44,6.21-17.18,7.44-26.17l.44,58.45c0,1.11.72,2.79-1.34,2.69l-1.55-13.26c-.27-2.33-3.12-2.62-4.64-3.7l-11.41-8.1c-1.58-1.12-4.96-.86-5.8-2.97l.41-1.95c.12-.56-1.03-1.54-2.19-1.54l-48.65.1c-.83,0-1.4.37-1.61.76-.58,1.11,1.74,1.43,2.22,2.42Z"/>
  <path d="M1106.84,485.33l-14.71-.16c-.36-.2-.41-1.87,0-2.22l16.97-.98c6.83-1.36,13.42-4.07,19.4-7.26,3.57-1.9,5.29-4.74,5.34-8.79l.58-57.44c-4.11,1.54-2.64,7.53-4.62,8.29-1.8.69-4.44-2.97-4.99-7.22l-3.9-5.78-1.2-16.13.15-111.58.66-14.36c.19-4.14,3.19-7.32,5.56-9.99l7.08-8c7.52-15.81,23.96-18.18,41.3-18.25-4.19,2.79-8.93,1.63-13.16,2.6-5.44,1.24-7.63,5.49-9.98,9.74-2.86,5.18-3.02,9.42-2.76,15.09l.92,19.89.24,199.27c-1.17-1.46-1.23-2.91-1.94-3.27-2.2-1.09-4.81,3.16-9.51,4.58,1.65,2.57,4.08,3.65,6.87,4.56l13.61,4.44c5.51.85,10.78-.66,16.5,1.46-6.92,2.02-13.54,1.13-20.24,1.18-2.63.02-2.41,1.27-3.47,2.83-2.61,3.84-17.94,3.75-26.59,2.75-3.92-.45-8.81.6-12.01-2.26-1.79-1.6-3-2.96-6.11-3Z"/>
  <path d="M628.59,301.4l-12.31,8.05c-5.43,3.55-11.38,6.94-14.31,13.46l25.87-17.5c2.19-1.48,4.49-2.36,6.22-4.76,1.03,1.4,2.02,1.81,4.28,1.37-1.85,2.59-3.38,2.87-4.37,5.01l-1.77-3.29-25.63,19.35-23.8,20.69.65-8.53.64-49.52-.09-84.66,2.6-3c4.24-12.94,1.24-29.86,11.45-56.73,3.41-8.97-2.05-12.78,2.47-18.22,2.23,2.16,2.16,5.35,2.41,8.64l.52,6.83c.26,3.41,1.56,6.36,1.13,9.93-.37,3.09.85,5.64,1.12,8.57l1.01,10.98.92,7.47,3.34,14.36,3.92,22.37c.5,2.87.69,4.95,1.26,7.77l4.57,22.63,3.01,12.78c.61,2.59,1.38,4.79,1.2,7.74l1.31,3.88-.02,11.96c0,4.32-1.58,8.71-.1,13.12.82,2.43,3.46,5.47,2.49,9.25Z"/>
  <path d="M741.97,85.53c-12.49-6.58-25.95-10.86-40.1-11.68l-55.76-.27c-2.88-.01-4.37,1.97-6.37,2.95s-4.22.72-5.16,4.4c.52.11,3.21.43,3.09,1.66l-.83,8.88-.88,9.84-.48,88.73-.2,95.83c-1.5.88-3.4,1.18-5.07,1.42l.48-22.57-1.09-18.75-.46-64.48-.76-80.16c-.08-8.9,1.32-17.12,5.16-24.9,1.55-3.14,4-4.91,7.64-5.37l9.19-1.15,58.75.25,33.32,1.92c14.85,1.78,29.11,5.66,42.38,12.13,1.63.8,2.63,1.77,3.24,2.73.94,1.48-.56,3.39-.45,4.43.38,3.61-.44,5.57-1.29,8.58-2.73,9.66-9.65,11.34-10.81,13.87-.44.96,11.12,26.41,6.48,57.63-2.73,18.33-8.94,35.69-20.74,50.07l12.16-24.8,6-25.65c1.53-6.56.71-12.95.24-19.48-.26-3.62-1.39-5.66-2.77-8.93l-6.42-15.26c-4-6.91-7.39-13.63-13.02-19.49-2.61-2.72-6.17-5.38-6.32-9.68-.05-1.55,1.3-2.89,2.18-4.74l-11.31-7.94ZM772.4,116.83c-2.83-12.05-10.59-20.85-19.19-28.53-8.95-7.95-19.51-14.39-31.89-14.59,10.21,3.39,19.72,7.57,27.83,14.95,10.5,7.14,17.52,17.34,23.25,28.17Z"/>
  <path d="M726.25,777.19c-2.44-16.81-8.99-24.55-26.36-27.71,6.15-1.95,11.58-2.06,16.12-5.74,4-3.24,6.65-7.87,8.15-12.77l2.88-9.44c1.46,7.92,3.31,14.82,8.66,20.25,4.68,4.74,10.55,5.38,17.5,7.73-12.78,1.89-21.66,8.51-24.43,20.56-.5,2.19-.23,4.59-2.54,7.13Z"/>
  <path d="M579.61,111.71c-.01-8.4-2.46-11.53-4.66-17.08l-4.69-11.81c-3.18-8.01-24.35-10-35.52-9.3-6.48.41-14.13,2.76-14.19-3.9l21.78-.05c9.67-.02,19.46,2.64,26.87,9.32s11.17,16.3,11.18,26.37l.16,162.87c0,.21-.48.5-.72.45l-.2-156.86Z"/>
  <path d="M336.33,421.67c.01,4.89.71,8.78-.16,13.4l-.07,10.44c-.04,6.85.63,13.17-.49,19.7-2.33-4.5-.4-8.42-.4-13.11l-.03-198.4c0-5.79-1.93-17.07-4.46-21.23s-9.22-4.02-13.57-4.99c-3.07-.68-6.3.88-8.73-2.38,12.67-.26,24.85,2.25,36.74,7.83-1.54,2.3-3.56,4.49-5.89,6.03-1.68,1.12-3.3-1.86-4.75-3.08l1.37,11.79.36,105.85c.02,5.02,1.24,9.81.33,14.74-.96,5.21-.38,10.03-.36,15.16l.12,38.24Z"/>
  <path d="M932.14,749.85l-54.75.34-104.03.45c-.9,0-1.73-.22-1.97-.59-.21-.33-.21-1.28-.02-1.64s1.21-.54,1.95-.53l62.48.32,82.19.26,14.14,1.39Z"/>
  <path d="M1030.01,678.35l-.3-26.06-12.15,21.95-12.39-21.81-.36,25.42c-.7.57-1.5.85-2.62.47l-.09-30.3c0-1.01,1.33-1.27,1.91-1.25.74.02,1.89.27,2.45,1.34l11,20.96,10.55-19.81c.55-1.03,1.1-2.05,1.69-2.49.7-.52,3.56-.3,3.56.61v30.88c-1.02.28-1.68.41-3.23.1Z"/>
  <path d="M731.47,661.48c4.17,2.22,6.11,5.23,5.7,9.33-.33,3.41-3.35,7.12-7.37,7.17l-15.9.2-.07-31.58c10.71.21,20.3-1.78,21.48,6.73.42,3.07.02,5.53-3.84,8.15ZM729.07,659.9c2.98-1.14,3.83-4.58,3.27-6.61-.66-2.38-2.89-3.78-5.58-3.74l-9.68.17.21,10.65c3.94-.29,8.17.92,11.78-.46ZM730.93,675c2.64-.83,3-4.2,2.79-6.31-.16-1.63-1.07-4.54-3.46-4.6l-13.16-.35-.22,11.91c4.76-.13,9.42.81,14.05-.65Z"/>
  <path d="M675.71,750.71l-69.71-.5-84.38-.26c-.2-.05-.46-.3-.42-.66l23.91-.4,96.52-.69,36.19-.12c1.65,0,3.28.32,4.74,1.46-2.09,1.15-4.24,1.19-6.85,1.18Z"/>
  <path d="M1197.9,678.35c-6.53-1.57-10.56-6.17-11.61-12.21-1.76-10.13,4.66-19.13,14.52-19.97,10.28-.87,18.33,7.3,17.77,17.28s-10.31,17.38-20.67,14.89ZM1214.43,667.37c1.96-5.82.69-11.34-3.77-15.22-3.65-3.19-9.43-4.12-14.39-1.62-4.37,2.2-7.13,7.01-6.99,12.47.18,6.68,4.53,11.63,10.48,12.69,6.34,1.13,12.44-1.73,14.67-8.31Z"/>
  <path d="M667.1,662.57c.38,7.93-4.5,13.83-11.8,15.23l-15.24.68.22-31.67,16.58.73c6.43,1.59,10.51,8.11,10.24,15.03ZM663.43,666.14c1.26-4.47.56-8.5-2.21-12.04-1.91-2.44-5.48-4.48-9.49-4.41l-8.41.14-.28,25.56,10.55-.1c4.91-.05,8.44-4.15,9.86-9.16Z"/>
  <path d="M1266.89,664.13c-.7,8.16-6.57,14.1-14.4,14.02l-13.12-.12.24-31.44,12.08.05c9.15.03,16.03,7.89,15.2,17.49ZM1263.34,662.65c.17-6.67-3.38-11.71-9.68-12.77l-11.58-.21.18,25.73,10.42-.11c6.49-.07,10.48-5.86,10.66-12.63Z"/>
  <path d="M535,676.59l-2.47-6.34-16.47-.34-3.34,7.88c-.5,1.17-2.88,1.32-3.4.25l12.56-30.03c.47-1.12,1.29-1.6,2.01-1.71,1.13-.17,2.12.46,2.64,1.69l7.4,17.42,5.39,12.67c-1.44,1.29-3.46.7-4.32-1.5ZM531.08,666.84l-6.89-16.38-6.94,16.04,13.83.34Z"/>
  <path d="M1164.91,678.11c-.7.59-1.94.6-3.06.33l-.12-14.63-18.69-.11-.15,14.75c-1.26.17-2.12.2-3.39-.15l.23-30.32c.01-1.49,2.99-1.77,3.01-.9l.34,13.49,18.57.13.17-14.08c1.01-.19,1.84-.25,3.13.07l-.04,31.42Z"/>
  <path d="M820.06,670.67l-16.03-.72-3.31,7.85c-.48,1.13-2.9,1.19-3.42.4l12.13-29.2c.45-1.08.73-1.69,1.34-2.15s2.62-.73,3.09.38l12.93,30.69c-.58.84-1.93.8-2.57.48-1.99-1.01-1.57-5.74-4.15-7.74ZM818.96,666.78l-6.68-16.09-7.34,15.97,14.02.12Z"/>
  <path d="M776.65,663.64l-15.13.04-.07,11.89,17.65.08c.17.95.18,1.51-.02,2.53l-20.77.34.13-31.91h20.54s.03,2.8.03,2.8l-17.47.06v11.12s14.49.2,14.49.2c.54,0,1.02,1.65.62,2.84Z"/>
  <path d="M254.15,678.24c-.46.53-2.09.61-2.97.29l-.09-14.81-18.64.04-.48,14.32c-.6.53-2.13.53-2.73.02l.08-29.2c0-.77-.43-1.45-.18-1.74.34-.39,1.65-.68,2.86-.32l.15,13.97,18.87-.06.22-14.15c1.11-.26,1.94-.26,2.95.01l-.04,31.62Z"/>
  <path d="M294.97,663.45l-14.13.06-.24,12.04,17.22.19c.38.19.46,2.11-.02,2.47l-20.23.28.04-31.92,20.22.17c.31,1.18.08,2.23-.29,2.6l-16.66-.03-.18,11.47,13.93.21c.82.01.98,2.45.34,2.45Z"/>
  <path d="M444.76,663.49l-14.28.24-.09,12,17.51.03c.84,0,.8,2.29,0,2.3l-20.46.19.03-31.7,20.13.05c.51.77.48,1.98.06,2.84l-17.19.03v11.28s14.19.11,14.19.11c.44,0,.66,2.53.11,2.65Z"/>
  <path d="M362.99,663.33l-14.12.35.03,11.88,17.26.08c.49.43.49,2.04-.08,2.58l-20.63.11.21-31.83,19.69.11c.57,0,.73,1.94.19,2.58l-16.6.29v11.29s14,.1,14,.1c.53,0,.7,2.46.05,2.47Z"/>
  <path d="M866.97,647.46c.03-1.35,3.09-1.14,3.1-.34l.11,18.1c.03,4.45-1.31,8.21-4.24,10.68-3.37,2.84-7.69,3.53-12.03,2.46-4.96-1.22-8.52-4.9-8.54-10.22l-.09-19.38c0-.93.32-1.58.68-1.92.53-.49,2.32-.44,2.35.3l.65,22.75c.12,4.11,5.27,6.03,8.65,6.04,3.48.01,8.69-1.8,8.8-5.86l.57-22.62Z"/>
  <path d="M615.7,663.73l-14.65.04-.13,11.78,17.67.13c.13.94.14,1.41-.05,2.52l-20.25.13-.27-31.81,19.94.11c.27.94.38,1.77.12,2.88l-16.7-.05-.16,10.97,14.46.34c.17.75.34,1.37.03,2.95Z"/>
  <path d="M1073.89,663.54l-14.22.1-.46,11.98,17.76.11c.37.44.38,1.91-.02,2.49l-20.51.08v-31.79s20.4.17,20.4.17l.03,2.71-17.06.13-.08,11.13,14.13.19c.26.43.42,1.73.04,2.71Z"/>
  <path d="M943.86,485.11l-35.72.1c-.88,0-.76-2.68,0-2.72l13.24-.55c5.6-.23,10.73-8.09,15.13-4.7,2.67,2.05,5.4,4.31,8.73,4.67l16.22,1.75c-5.9,2.03-11.4,1.43-17.62,1.44Z"/>
  <path d="M490.83,649.47c.49-1.15.66-2.13,1.22-2.55.71-.53,2.43-.65,2.93.29l-12.46,30.18c-.41,1-1.57,1.4-2.16,1.42-.68.03-1.68-.5-2.09-1.46l-12.54-30.25c.58-.92,3.11-.85,3.61.32l11.2,26.42,10.28-24.36Z"/>
  <path d="M567.34,677.73c0,1.44-3.44,1.21-3.43.38l.23-28.32-11.17-.32c.14-1.02.24-1.83.73-3.02l24.44.02c.55.74.58,2.34.08,3l-10.84.42-.03,27.85Z"/>
  <path d="M198.98,677.77c0,1.13-2.31,1.32-3.18.73l-.08-28.77-11.03-.24.09-3.03,25.16.03c.25,1.08.23,1.9-.05,3.12l-10.76.25-.14,27.91Z"/>
  <path d="M903.27,677.79c0,.93-2.4,1.14-3.34.59l.1-28.73h-10.49c-.28-1.27-.25-2.05.05-3.18l24.43.12.02,2.88-10.87.2.1,28.13Z"/>
  <path d="M957.01,646.95l-11.42,18.72-.64,12.31c-.04.83-1.05.9-1.71.62-2.58-1.09.15-10.61-1.73-13.71l-10.48-17.25c-.26-.43.5-.95.93-1.03.77-.14,1.83-.05,2.38.81l9.6,14.97,8.71-14.25c.97-1.58,3.12-2.11,4.36-1.19Z"/>
  <path d="M1109.25,677.68c0,1.18-3.2,1.17-3.2.42l-.14-28.45-10.77-.12.08-3.1,24.49.03c.39,1.09.54,1.96.29,3.07l-10.7.19-.03,27.95Z"/>
  <path d="M406.96,675.74c.95.03.76,2.77.19,2.77l-19.71.05.2-31.83h3.02s.16,28.53.16,28.53l16.13.48Z"/>
  <path d="M782.12,74.49c-.3,2-2.79,2.01-4.56,3.29-13.35-4.53-26.82-6.33-40.6-9.03,8.05-1.47,15.48.17,23.15,1.27,7.2,1.03,14.2,1.97,22.01,4.48Z"/>
  <path d="M614.61,69.09c-5.99.19-11.28,1.06-16.86-.03l-6.35-.04c-.29-.13-.44-.42-.43-.67l32.66-.11c.31,0,.45.44.37.54l-9.39.31Z"/>
  <path d="M579.83,347.29l-.09-40.91c0-.23.44-.5.68-.42l.09,40.91c0,.23-.44.5-.68.42Z"/>
  <path d="M561.56,71.63c4.45-.57,8.42-.27,9.3,2.79-3.6-.35-6.56-1.06-9.3-2.79Z"/>
</svg>